<svg id="Layer_1" data-name="Layer 1" xmlns="http://www.w3.org/2000/svg" viewBox="0 0 52.75 56.69"><defs><style>.cls-1{fill:#fff;}</style></defs><path class="cls-1" d="M30.29,29.57c0,1.73-.95,2.9-2.34,2.9-1.73,0-2.66-1.49-2.68-3.48a1.46,1.46,0,0,1,.17-.71,2.68,2.68,0,0,1,2.36-1.49A2.47,2.47,0,0,1,30.29,29.57Z" transform="translate(-1.81 -0.38)"/><path class="cls-1" d="M24.67,45.15a16.33,16.33,0,0,0-.2-1.82,10.57,10.57,0,0,0-1.3.37,4.42,4.42,0,0,0-1,.53,2.57,2.57,0,0,0-.68.72,1.79,1.79,0,0,0-.27.91,1,1,0,0,0,.31.82,1.55,1.55,0,0,0,1,.28h2.19C24.72,46.36,24.7,45.76,24.67,45.15Zm0,0a16.33,16.33,0,0,0-.2-1.82,10.57,10.57,0,0,0-1.3.37,4.42,4.42,0,0,0-1,.53,2.57,2.57,0,0,0-.68.72,1.79,1.79,0,0,0-.27.91,1,1,0,0,0,.31.82,1.55,1.55,0,0,0,1,.28h2.19C24.72,46.36,24.7,45.76,24.67,45.15Zm0,0a16.33,16.33,0,0,0-.2-1.82,10.57,10.57,0,0,0-1.3.37,4.42,4.42,0,0,0-1,.53,2.57,2.57,0,0,0-.68.72,1.79,1.79,0,0,0-.27.91,1,1,0,0,0,.31.82,1.55,1.55,0,0,0,1,.28h2.19C24.72,46.36,24.7,45.76,24.67,45.15Zm0,0a16.33,16.33,0,0,0-.2-1.82,10.57,10.57,0,0,0-1.3.37,4.42,4.42,0,0,0-1,.53,2.57,2.57,0,0,0-.68.72,1.79,1.79,0,0,0-.27.91,1,1,0,0,0,.31.82,1.55,1.55,0,0,0,1,.28h2.19C24.72,46.36,24.7,45.76,24.67,45.15ZM1.81,16.48V52.63a4.44,4.44,0,0,0,4.44,4.44H50.11a4.44,4.44,0,0,0,4.45-4.44V16.48ZM33.73,31.74a5.4,5.4,0,0,0,2.6.67,2.65,2.65,0,0,0,2.85-2.62c0-1.56-1.06-2.66-3.46-2.66a14,14,0,0,0-1.69.11l.78-5.8h5.78v1.37H36l-.46,3.11a6.38,6.38,0,0,1,1-.06,4.88,4.88,0,0,1,2.61.66,3.41,3.41,0,0,1,1.73,3.08,4.19,4.19,0,0,1-4.51,4.13,6,6,0,0,1-3-.74Zm-.21,5.69a1.39,1.39,0,0,1,.4,1,1.32,1.32,0,0,1-.4,1,1.36,1.36,0,0,1-1,.4,1.45,1.45,0,0,1-1-.4,1.3,1.3,0,0,1-.42-1,1.37,1.37,0,0,1,.42-1,1.38,1.38,0,0,1,1-.42A1.3,1.3,0,0,1,33.52,37.43ZM25.7,23.13a6.56,6.56,0,0,1,3.86-1.79,8.57,8.57,0,0,1,1.2-.09v1.34a6.24,6.24,0,0,0-1.23.09A4.85,4.85,0,0,0,25.32,27h0A3.69,3.69,0,0,1,32,29.45a4.05,4.05,0,0,1-4,4.28c-2.57,0-4.26-2-4.26-5.15A7.52,7.52,0,0,1,25.7,23.13Zm-11,8.54a5.66,5.66,0,0,0,2.68.74c2.08,0,2.75-1.32,2.73-2.34,0-1.69-1.54-2.42-3.12-2.42H16.1V26.42H17c1.19,0,2.7-.61,2.7-2,0-1-.62-1.83-2.12-1.83a4.45,4.45,0,0,0-2.42.8l-.45-1.19a5.91,5.91,0,0,1,3.18-.93c2.38,0,3.46,1.42,3.46,2.89A3,3,0,0,1,19.13,27v0a3.13,3.13,0,0,1,2.7,3.09c0,1.93-1.53,3.62-4.41,3.62a6.11,6.11,0,0,1-3.14-.82Zm-4.17,24a1.36,1.36,0,0,1-1,.4,1.45,1.45,0,0,1-1-.4,1.32,1.32,0,0,1-.42-1,1.35,1.35,0,0,1,.42-1,1.38,1.38,0,0,1,1-.42,1.3,1.3,0,0,1,1,.42,1.37,1.37,0,0,1,.4,1A1.34,1.34,0,0,1,10.55,55.64Zm3.68,0a1.34,1.34,0,0,1-1,.4,1.45,1.45,0,0,1-1-.4,1.32,1.32,0,0,1-.42-1,1.35,1.35,0,0,1,.42-1,1.39,1.39,0,0,1,1-.42,1.28,1.28,0,0,1,1,.42,1.37,1.37,0,0,1,.4,1A1.34,1.34,0,0,1,14.23,55.64Zm3.15-13.42a3.31,3.31,0,0,1-.29.67.32.32,0,0,1-.25.17.47.47,0,0,1-.33-.06,1.13,1.13,0,0,0-.89-.13,2.65,2.65,0,0,0-1,.43,3.61,3.61,0,0,0-.81.75,1.87,1.87,0,0,0-.39.81,1.17,1.17,0,0,0,.06.43.41.41,0,0,0,.41.29h1.95a1.46,1.46,0,0,1,.52.09.87.87,0,0,1,.42.3,1.67,1.67,0,0,1,.28.6,3.53,3.53,0,0,1,.1.93,4.33,4.33,0,0,1-1.51,3.67,8,8,0,0,1-4.83,1.16A6.37,6.37,0,0,1,8.63,52,5.41,5.41,0,0,1,7,51.06,4.29,4.29,0,0,1,5.89,49.8a2.93,2.93,0,0,1-.37-1.39,6.61,6.61,0,0,1,.66-3.09,6.32,6.32,0,0,1,.57-.94,7,7,0,0,0,.5-.75H8.68a9.8,9.8,0,0,0-.84,1.84,6.45,6.45,0,0,0-.35,2,2.52,2.52,0,0,0,.21,1,2.65,2.65,0,0,0,.64.86,3,3,0,0,0,1,.61,3.71,3.71,0,0,0,1.39.24A15.57,15.57,0,0,0,13,50.05a3.12,3.12,0,0,0,1.16-.39,1.25,1.25,0,0,0,.5-.68c.08-.28.17-.61.27-1a.4.4,0,0,0,0-.27c0-.07-.12-.1-.27-.1H13.57c-.34,0-.65,0-.91,0a1.68,1.68,0,0,1-.65-.16,1.35,1.35,0,0,1-.8-.9,2.65,2.65,0,0,1,0-1.34,4.63,4.63,0,0,1,.69-1.49,6.9,6.9,0,0,1,1.2-1.4,6.36,6.36,0,0,1,1.53-1,4,4,0,0,1,1.73-.41,1.19,1.19,0,0,1,.76.2.78.78,0,0,1,.29.52A1.7,1.7,0,0,1,17.38,42.22ZM50.9,49H27a7.68,7.68,0,0,1-.12.76,4.21,4.21,0,0,1-.3.91,5.25,5.25,0,0,1-.58.93,3.86,3.86,0,0,1-.94.84,4.93,4.93,0,0,1-1.39.59,7.16,7.16,0,0,1-1.92.23l-.43-1.34a4.59,4.59,0,0,0,1.6-.39,3.72,3.72,0,0,0,1.16-.87A2.78,2.78,0,0,0,24.73,49H22.41a3.74,3.74,0,0,1-2.7-.8,3.26,3.26,0,0,1-.8-2.38,2.83,2.83,0,0,1,.46-1.51,4.68,4.68,0,0,1,1.39-1.38,9.8,9.8,0,0,1,2.36-1.09,16.12,16.12,0,0,1,3.36-.66c.15.82.26,1.72.34,2.68s.12,2,.15,3.11h4.5V41.51l2.36-.67V47h5.49V41.57l2.23-.79V47H44V41.57l2.23-.79V47h2.44V41.57l2.23-.79ZM24.47,43.33a10.57,10.57,0,0,0-1.3.37,4.42,4.42,0,0,0-1,.53,2.57,2.57,0,0,0-.68.72,1.79,1.79,0,0,0-.27.91,1,1,0,0,0,.31.82,1.55,1.55,0,0,0,1,.28h2.19c0-.6,0-1.2-.06-1.81A16.33,16.33,0,0,0,24.47,43.33Zm.2,1.82a16.33,16.33,0,0,0-.2-1.82,10.57,10.57,0,0,0-1.3.37,4.42,4.42,0,0,0-1,.53,2.57,2.57,0,0,0-.68.72,1.79,1.79,0,0,0-.27.91,1,1,0,0,0,.31.82,1.55,1.55,0,0,0,1,.28h2.19C24.72,46.36,24.7,45.76,24.67,45.15Zm0,0a16.33,16.33,0,0,0-.2-1.82,10.57,10.57,0,0,0-1.3.37,4.42,4.42,0,0,0-1,.53,2.57,2.57,0,0,0-.68.72,1.79,1.79,0,0,0-.27.91,1,1,0,0,0,.31.82,1.55,1.55,0,0,0,1,.28h2.19C24.72,46.36,24.7,45.76,24.67,45.15Zm0,0a16.33,16.33,0,0,0-.2-1.82,10.57,10.57,0,0,0-1.3.37,4.42,4.42,0,0,0-1,.53,2.57,2.57,0,0,0-.68.72,1.79,1.79,0,0,0-.27.91,1,1,0,0,0,.31.82,1.55,1.55,0,0,0,1,.28h2.19C24.72,46.36,24.7,45.76,24.67,45.15Zm0,0a16.33,16.33,0,0,0-.2-1.82,10.57,10.57,0,0,0-1.3.37,4.42,4.42,0,0,0-1,.53,2.57,2.57,0,0,0-.68.72,1.79,1.79,0,0,0-.27.91,1,1,0,0,0,.31.82,1.55,1.55,0,0,0,1,.28h2.19C24.72,46.36,24.7,45.76,24.67,45.15Z" transform="translate(-1.81 -0.38)"/><path class="cls-1" d="M54.56,7a4.41,4.41,0,0,0-4.41-4.41H47.38V.8A.41.41,0,0,0,47,.38h0a.41.41,0,0,0-.41.42V2.62H45.7V.8a.41.41,0,1,0-.82,0V2.62H38.41V.8a.42.42,0,1,0-.83,0V2.62h-.85V.8a.42.42,0,0,0-.41-.42h0A.42.42,0,0,0,35.9.8V2.62H29.43V.8a.41.41,0,1,0-.82,0V2.62h-.86V.8a.41.41,0,1,0-.82,0V2.62H20.46V.8a.41.41,0,1,0-.82,0V2.62h-.86V.8a.41.41,0,0,0-.41-.42h0A.41.41,0,0,0,18,.8V2.62H11.49V.8a.42.42,0,1,0-.83,0V2.62H9.81V.8A.42.42,0,1,0,9,.8V2.62H6.22A4.4,4.4,0,0,0,1.81,7v7.75H54.56ZM10.23,9.49A2.06,2.06,0,0,1,9,5.79V7.41a.42.42,0,0,0,.83,0v-2a1.93,1.93,0,0,1,.42,0,2,2,0,0,1,.43,0v2a.42.42,0,0,0,.83,0V5.79a2,2,0,0,1,.8,1.63A2.07,2.07,0,0,1,10.23,9.49Zm9,0a2.07,2.07,0,0,1-2.06-2.07A2,2,0,0,1,18,5.79V7.41a.41.41,0,0,0,.41.41h0a.41.41,0,0,0,.41-.41v-2a2,2,0,0,1,.43,0,2.1,2.1,0,0,1,.43,0v2a.41.41,0,0,0,.82,0V5.79a2.06,2.06,0,0,1-1.25,3.7Zm9,0a2.06,2.06,0,0,1-1.25-3.7V7.41a.41.41,0,0,0,.82,0v-2a2.1,2.1,0,0,1,.43,0,2,2,0,0,1,.43,0v2a.41.41,0,0,0,.82,0V5.79a2,2,0,0,1,.81,1.63A2.07,2.07,0,0,1,28.18,9.49Zm9,0a2.07,2.07,0,0,1-2.07-2.07,2.05,2.05,0,0,1,.81-1.63V7.41a.41.41,0,0,0,.42.41h0a.41.41,0,0,0,.41-.41v-2a2,2,0,0,1,.43,0,1.93,1.93,0,0,1,.42,0v2a.42.42,0,0,0,.83,0V5.79a2.06,2.06,0,0,1-1.25,3.7Zm9,0a2.06,2.06,0,0,1-1.25-3.7V7.41a.41.41,0,0,0,.82,0v-2a1.87,1.87,0,0,1,.86,0v2a.41.41,0,0,0,.41.41h0a.41.41,0,0,0,.41-.41V5.79a2,2,0,0,1,.81,1.63A2.07,2.07,0,0,1,46.13,9.49Z" transform="translate(-1.81 -0.38)"/></svg>