<svg id="Layer_1" data-name="Layer 1" xmlns="http://www.w3.org/2000/svg" viewBox="0 0 52.96 56.92"><defs><style>.cls-1{fill:#fff;}</style></defs><path class="cls-1" d="M27.51,23.6c-.38.71-.68,1.24-1,1.8l-3,4.12v0h4v-4c0-.64,0-1.27,0-1.91Zm0,0c-.38.71-.68,1.24-1,1.8l-3,4.12v0h4v-4c0-.64,0-1.27,0-1.91Zm0,0c-.38.71-.68,1.24-1,1.8l-3,4.12v0h4v-4c0-.64,0-1.27,0-1.91Zm.14,20.09c-.25-.69-.55-1-.91-1-.12,0-.34.15-.65.43a4.15,4.15,0,0,0-.59.78c-.21.33-.38.63-.52.89a10.42,10.42,0,0,0,1.63,1,9.61,9.61,0,0,0,1.62.65A14.37,14.37,0,0,0,27.65,43.69ZM27.51,23.6c-.38.71-.68,1.24-1,1.8l-3,4.12v0h4v-4c0-.64,0-1.27,0-1.91Zm.14,20.09c-.25-.69-.55-1-.91-1-.12,0-.34.15-.65.43a4.15,4.15,0,0,0-.59.78c-.21.33-.38.63-.52.89a10.42,10.42,0,0,0,1.63,1,9.61,9.61,0,0,0,1.62.65A14.37,14.37,0,0,0,27.65,43.69ZM27.51,23.6c-.38.71-.68,1.24-1,1.8l-3,4.12v0h4v-4c0-.64,0-1.27,0-1.91Zm.14,20.09c-.25-.69-.55-1-.91-1-.12,0-.34.15-.65.43a4.15,4.15,0,0,0-.59.78c-.21.33-.38.63-.52.89a10.42,10.42,0,0,0,1.63,1,9.61,9.61,0,0,0,1.62.65A14.37,14.37,0,0,0,27.65,43.69Zm9.74.18A16.22,16.22,0,0,0,37.2,42a8.84,8.84,0,0,0-1.31.37,4.73,4.73,0,0,0-1,.53,2.72,2.72,0,0,0-.68.72,1.83,1.83,0,0,0-.27.92,1,1,0,0,0,.32.82,1.51,1.51,0,0,0,1,.28h2.2C37.45,45.08,37.43,44.48,37.39,43.87Zm0,0A16.22,16.22,0,0,0,37.2,42a8.84,8.84,0,0,0-1.31.37,4.73,4.73,0,0,0-1,.53,2.72,2.72,0,0,0-.68.72,1.83,1.83,0,0,0-.27.92,1,1,0,0,0,.32.82,1.51,1.51,0,0,0,1,.28h2.2C37.45,45.08,37.43,44.48,37.39,43.87ZM27.51,23.6c-.38.71-.68,1.24-1,1.8l-3,4.12v0h4v-4c0-.64,0-1.27,0-1.91Zm.14,20.09c-.25-.69-.55-1-.91-1-.12,0-.34.15-.65.43a4.15,4.15,0,0,0-.59.78c-.21.33-.38.63-.52.89a10.42,10.42,0,0,0,1.63,1,9.61,9.61,0,0,0,1.62.65A14.37,14.37,0,0,0,27.65,43.69ZM27.51,23.6c-.38.71-.68,1.24-1,1.8l-3,4.12v0h4v-4c0-.64,0-1.27,0-1.91Zm.14,20.09c-.25-.69-.55-1-.91-1-.12,0-.34.15-.65.43a4.15,4.15,0,0,0-.59.78c-.21.33-.38.63-.52.89a10.42,10.42,0,0,0,1.63,1,9.61,9.61,0,0,0,1.62.65A14.37,14.37,0,0,0,27.65,43.69Zm9.74.18A16.22,16.22,0,0,0,37.2,42a8.84,8.84,0,0,0-1.31.37,4.73,4.73,0,0,0-1,.53,2.72,2.72,0,0,0-.68.72,1.83,1.83,0,0,0-.27.92,1,1,0,0,0,.32.82,1.51,1.51,0,0,0,1,.28h2.2C37.45,45.08,37.43,44.48,37.39,43.87Zm0,0A16.22,16.22,0,0,0,37.2,42a8.84,8.84,0,0,0-1.31.37,4.73,4.73,0,0,0-1,.53,2.72,2.72,0,0,0-.68.72,1.83,1.83,0,0,0-.27.92,1,1,0,0,0,.32.82,1.51,1.51,0,0,0,1,.28h2.2C37.45,45.08,37.43,44.48,37.39,43.87ZM27.51,23.6c-.38.71-.68,1.24-1,1.8l-3,4.12v0h4v-4c0-.64,0-1.27,0-1.91Zm.14,20.09c-.25-.69-.55-1-.91-1-.12,0-.34.15-.65.43a4.15,4.15,0,0,0-.59.78c-.21.33-.38.63-.52.89a10.42,10.42,0,0,0,1.63,1,9.61,9.61,0,0,0,1.62.65A14.37,14.37,0,0,0,27.65,43.69ZM1.52,16.7V53A4.46,4.46,0,0,0,6,57.46H50A4.46,4.46,0,0,0,54.48,53V16.7Zm31.05,4.87h1.64v5.26H40.3V21.57h1.64V34.16H40.3V28.25H34.21v5.91H32.57ZM12.84,33.15l1.29-1.25c3.1-3,4.52-4.52,4.52-6.35a2.15,2.15,0,0,0-2.39-2.38,4.1,4.1,0,0,0-2.57,1L13.16,23a5.39,5.39,0,0,1,3.42-1.23,3.42,3.42,0,0,1,3.72,3.53c0,2.24-1.63,4.05-4.19,6.52l-.95.89v0H20.6v1.37H12.84ZM9.79,54.39a1.32,1.32,0,0,1-1,.4,1.41,1.41,0,0,1-1-.4,1.29,1.29,0,0,1-.42-1A1.43,1.43,0,0,1,8.81,52a1.3,1.3,0,0,1,1,.42,1.41,1.41,0,0,1,.4,1A1.3,1.3,0,0,1,9.79,54.39Zm3.7,0a1.34,1.34,0,0,1-1,.4,1.41,1.41,0,0,1-1-.4,1.29,1.29,0,0,1-.42-1A1.43,1.43,0,0,1,12.51,52a1.32,1.32,0,0,1,1,.42,1.41,1.41,0,0,1,.4,1A1.3,1.3,0,0,1,13.49,54.39Zm16.84-8.3a3.42,3.42,0,0,1-.43,1.23c-.5,1-1,1.54-1.42,1.54a1.23,1.23,0,0,1-.53-.14c-.37-.14-.88-.38-1.52-.69l-2.32-1.15a1.62,1.62,0,0,1-.73.72,3.25,3.25,0,0,1-1.05.12H18.39a18.83,18.83,0,0,0-.15-2.59,9.61,9.61,0,0,0-.39-1.75,3.4,3.4,0,0,0-.54-1.05,2.09,2.09,0,0,0-.61-.53,1.4,1.4,0,0,0-.57-.2l-.45,0a3,3,0,0,0-1.11.19,2.84,2.84,0,0,0-.84.48,2.32,2.32,0,0,0-.54.68,1.58,1.58,0,0,0-.2.74,1.09,1.09,0,0,0,.09.41.36.36,0,0,0,.38.23h1.87a1.72,1.72,0,0,1,.52.08,1,1,0,0,1,.42.31,1.67,1.67,0,0,1,.28.6,3.48,3.48,0,0,1,.11.93,4.35,4.35,0,0,1-1.53,3.69,8,8,0,0,1-4.84,1.17,6.48,6.48,0,0,1-2.23-.36,5.41,5.41,0,0,1-1.68-.92,4.2,4.2,0,0,1-1.06-1.27A2.93,2.93,0,0,1,5,47.14a7.25,7.25,0,0,1,.19-1.8,6.45,6.45,0,0,1,1-2.25,6.5,6.5,0,0,0,.5-.75H8.12a9.62,9.62,0,0,0-.84,1.85,6.13,6.13,0,0,0-.35,2,2.52,2.52,0,0,0,.84,1.86,3.29,3.29,0,0,0,1,.62,4,4,0,0,0,1.39.23,14.3,14.3,0,0,0,2.26-.13,3.11,3.11,0,0,0,1.17-.39,1.2,1.2,0,0,0,.5-.68c.09-.28.18-.62.28-1a.66.66,0,0,0,0-.15c0-.15-.1-.23-.29-.23h-1a5.78,5.78,0,0,1-1.2-.1,1.84,1.84,0,0,1-.76-.32,1.11,1.11,0,0,1-.39-.52,2.14,2.14,0,0,1-.11-.7,5.12,5.12,0,0,1,1.23-3.2,5,5,0,0,1,3.92-1.73,3.52,3.52,0,0,1,2.1.6,4.75,4.75,0,0,1,1.38,1.48,7.06,7.06,0,0,1,.76,1.93,13.83,13.83,0,0,1,.32,1.91H22.5a21.24,21.24,0,0,1,1.18-2.34,14.35,14.35,0,0,1,1.22-1.8,6.62,6.62,0,0,1,1.18-1.15A1.87,1.87,0,0,1,27.13,40c.82,0,1.51.59,2.06,1.76a10.61,10.61,0,0,1,.48,1.32c.16.53.34,1.16.53,1.91A4.23,4.23,0,0,1,30.33,46.09Zm.42-15.26H29.06v3.33H27.51V30.83H21.87V29.77L27.28,22h1.78v7.54h1.69Zm8.84,17.65a4.34,4.34,0,0,1-.31.92,4.73,4.73,0,0,1-.58.93,3.86,3.86,0,0,1-.94.84,5.07,5.07,0,0,1-1.39.6,7.35,7.35,0,0,1-1.94.22L34,50.65a4.59,4.59,0,0,0,1.61-.39,3.87,3.87,0,0,0,1.17-.87,2.88,2.88,0,0,0,.68-1.67H35.13a3.72,3.72,0,0,1-2.71-.81,3.22,3.22,0,0,1-.81-2.39A2.92,2.92,0,0,1,32.07,43a4.61,4.61,0,0,1,1.4-1.38,9.34,9.34,0,0,1,2.37-1.1,16.32,16.32,0,0,1,3.38-.66c.14.82.26,1.72.33,2.69s.13,2,.15,3.12h5.23V40.21l2.37-.67,0,8.18H39.7A5.33,5.33,0,0,1,39.59,48.48Zm3.82,3.26a1.34,1.34,0,0,1-1,.4,1.41,1.41,0,0,1-1-.4,1.3,1.3,0,0,1-.42-1,1.43,1.43,0,0,1,1.44-1.44,1.32,1.32,0,0,1,1,.42,1.41,1.41,0,0,1,.4,1A1.32,1.32,0,0,1,43.41,51.74Zm3.7,0a1.34,1.34,0,0,1-1,.4,1.41,1.41,0,0,1-1-.4,1.3,1.3,0,0,1-.42-1,1.43,1.43,0,0,1,1.44-1.44,1.32,1.32,0,0,1,1,.42,1.45,1.45,0,0,1,.4,1A1.36,1.36,0,0,1,47.11,51.74ZM37.2,42a8.84,8.84,0,0,0-1.31.37,4.73,4.73,0,0,0-1,.53,2.72,2.72,0,0,0-.68.72,1.83,1.83,0,0,0-.27.92,1,1,0,0,0,.32.82,1.51,1.51,0,0,0,1,.28h2.2c0-.6,0-1.2-.07-1.81A16.22,16.22,0,0,0,37.2,42Zm-10.46.61c-.12,0-.34.15-.65.43a4.15,4.15,0,0,0-.59.78c-.21.33-.38.63-.52.89a10.42,10.42,0,0,0,1.63,1,9.61,9.61,0,0,0,1.62.65,14.37,14.37,0,0,0-.58-2.72C27.4,43,27.1,42.65,26.74,42.65ZM26.5,25.4l-3,4.12v0h4v-4c0-.64,0-1.27,0-1.91h0C27.13,24.31,26.83,24.84,26.5,25.4Zm1.15,18.29c-.25-.69-.55-1-.91-1-.12,0-.34.15-.65.43a4.15,4.15,0,0,0-.59.78c-.21.33-.38.63-.52.89a10.42,10.42,0,0,0,1.63,1,9.61,9.61,0,0,0,1.62.65A14.37,14.37,0,0,0,27.65,43.69ZM27.51,23.6c-.38.71-.68,1.24-1,1.8l-3,4.12v0h4v-4c0-.64,0-1.27,0-1.91Zm9.88,20.27A16.22,16.22,0,0,0,37.2,42a8.84,8.84,0,0,0-1.31.37,4.73,4.73,0,0,0-1,.53,2.72,2.72,0,0,0-.68.72,1.83,1.83,0,0,0-.27.92,1,1,0,0,0,.32.82,1.51,1.51,0,0,0,1,.28h2.2C37.45,45.08,37.43,44.48,37.39,43.87Zm0,0A16.22,16.22,0,0,0,37.2,42a8.84,8.84,0,0,0-1.31.37,4.73,4.73,0,0,0-1,.53,2.72,2.72,0,0,0-.68.72,1.83,1.83,0,0,0-.27.92,1,1,0,0,0,.32.82,1.51,1.51,0,0,0,1,.28h2.2C37.45,45.08,37.43,44.48,37.39,43.87Zm-9.74-.18c-.25-.69-.55-1-.91-1-.12,0-.34.15-.65.43a4.15,4.15,0,0,0-.59.78c-.21.33-.38.63-.52.89a10.42,10.42,0,0,0,1.63,1,9.61,9.61,0,0,0,1.62.65A14.37,14.37,0,0,0,27.65,43.69ZM27.51,23.6c-.38.71-.68,1.24-1,1.8l-3,4.12v0h4v-4c0-.64,0-1.27,0-1.91Zm.14,20.09c-.25-.69-.55-1-.91-1-.12,0-.34.15-.65.43a4.15,4.15,0,0,0-.59.78c-.21.33-.38.63-.52.89a10.42,10.42,0,0,0,1.63,1,9.61,9.61,0,0,0,1.62.65A14.37,14.37,0,0,0,27.65,43.69ZM27.51,23.6c-.38.71-.68,1.24-1,1.8l-3,4.12v0h4v-4c0-.64,0-1.27,0-1.91Zm9.88,20.27A16.22,16.22,0,0,0,37.2,42a8.84,8.84,0,0,0-1.31.37,4.73,4.73,0,0,0-1,.53,2.72,2.72,0,0,0-.68.72,1.83,1.83,0,0,0-.27.92,1,1,0,0,0,.32.82,1.51,1.51,0,0,0,1,.28h2.2C37.45,45.08,37.43,44.48,37.39,43.87Zm0,0A16.22,16.22,0,0,0,37.2,42a8.84,8.84,0,0,0-1.31.37,4.73,4.73,0,0,0-1,.53,2.72,2.72,0,0,0-.68.72,1.83,1.83,0,0,0-.27.92,1,1,0,0,0,.32.82,1.51,1.51,0,0,0,1,.28h2.2C37.45,45.08,37.43,44.48,37.39,43.87Zm-9.74-.18c-.25-.69-.55-1-.91-1-.12,0-.34.15-.65.43a4.15,4.15,0,0,0-.59.78c-.21.33-.38.63-.52.89a10.42,10.42,0,0,0,1.63,1,9.61,9.61,0,0,0,1.62.65A14.37,14.37,0,0,0,27.65,43.69ZM27.51,23.6c-.38.71-.68,1.24-1,1.8l-3,4.12v0h4v-4c0-.64,0-1.27,0-1.91Zm0,0c-.38.71-.68,1.24-1,1.8l-3,4.12v0h4v-4c0-.64,0-1.27,0-1.91Zm0,0c-.38.71-.68,1.24-1,1.8l-3,4.12v0h4v-4c0-.64,0-1.27,0-1.91Z" transform="translate(-1.52 -0.54)"/><path class="cls-1" d="M54.48,7.21a4.42,4.42,0,0,0-4.43-4.42H47.28V1a.41.41,0,0,0-.41-.41h0a.41.41,0,0,0-.42.41V2.79h-.86V1a.41.41,0,0,0-.82,0V2.79h-6.5V1a.42.42,0,0,0-.83,0V2.79h-.86V1a.41.41,0,0,0-.41-.41h0a.41.41,0,0,0-.42.41V2.79H29.26V1a.41.41,0,0,0-.42-.41.41.41,0,0,0-.41.41V2.79h-.86V1a.41.41,0,0,0-.41-.41.41.41,0,0,0-.42.41V2.79H20.25V1a.41.41,0,0,0-.42-.41.41.41,0,0,0-.41.41V2.79h-.86V1a.41.41,0,0,0-.41-.41h0a.41.41,0,0,0-.42.41V2.79h-6.5V1a.41.41,0,1,0-.82,0V2.79H9.55V1a.42.42,0,0,0-.83,0V2.79H6A4.42,4.42,0,0,0,1.52,7.21V15h53ZM10,9.68A2.07,2.07,0,0,1,8.72,6V7.59a.42.42,0,1,0,.83,0v-2a3,3,0,0,1,.43,0,2,2,0,0,1,.43,0v2a.41.41,0,1,0,.82,0V6a2,2,0,0,1,.82,1.64A2.07,2.07,0,0,1,10,9.68Zm9,0A2.07,2.07,0,0,1,17.73,6V7.59a.42.42,0,0,0,.42.42h0a.42.42,0,0,0,.41-.42v-2a2,2,0,0,1,.43,0,3,3,0,0,1,.43,0v2a.41.41,0,0,0,.41.42.42.42,0,0,0,.42-.42V6A2.07,2.07,0,0,1,19,9.68Zm9,0A2.07,2.07,0,0,1,26.74,6V7.59a.42.42,0,0,0,.42.42.41.41,0,0,0,.41-.42v-2a2,2,0,0,1,.43,0,3,3,0,0,1,.43,0v2a.41.41,0,0,0,.41.42.42.42,0,0,0,.42-.42V6A2.07,2.07,0,0,1,28,9.68Zm9,0A2.07,2.07,0,0,1,35.75,6V7.59a.42.42,0,0,0,.42.42h0a.41.41,0,0,0,.41-.42v-2a2.33,2.33,0,0,1,.86,0v2a.42.42,0,1,0,.83,0V6A2.07,2.07,0,0,1,37,9.68Zm9,0A2.07,2.07,0,0,1,44,7.61,2,2,0,0,1,44.77,6V7.59a.41.41,0,1,0,.82,0v-2a3.13,3.13,0,0,1,.43,0,3,3,0,0,1,.43,0v2a.42.42,0,0,0,.42.42h0a.42.42,0,0,0,.41-.42V6A2.07,2.07,0,0,1,46,9.68Z" transform="translate(-1.52 -0.54)"/></svg>