<svg id="Layer_1" data-name="Layer 1" xmlns="http://www.w3.org/2000/svg" viewBox="0 0 53.32 57.31"><defs><style>.cls-1{fill:#fff;}</style></defs><path class="cls-1" d="M29.94,27.8c0-3.33,1.06-5.1,2.49-5.1,1.72,0,2.48,2,2.48,5s-.81,5.1-2.48,5.1C30.92,32.78,29.94,31,29.94,27.8Z" transform="translate(-1.34 -0.35)"/><path class="cls-1" d="M28.21,44.6a.93.93,0,0,0-.76-.57.56.56,0,0,0-.39.15,1.16,1.16,0,0,0-.26.38,2.15,2.15,0,0,0-.15.51,3.15,3.15,0,0,0,0,.52q0,.22,0,.54a2.09,2.09,0,0,0,.14.61,1.14,1.14,0,0,0,.34.49.94.94,0,0,0,.64.2.63.63,0,0,0,.59-.37,2,2,0,0,0,.2-1A3,3,0,0,0,28.21,44.6Zm1.93,2.83H32.5a13.19,13.19,0,0,0-.16-1.65,3.87,3.87,0,0,0-.47-1.29,2.59,2.59,0,0,0-.92-.91,4.06,4.06,0,0,0-1.55-.46,2.42,2.42,0,0,1,.77,1.12,4.64,4.64,0,0,1,.27,1.63,2.71,2.71,0,0,1-.13.86A6.26,6.26,0,0,0,30.14,47.43Zm0,0H32.5a13.19,13.19,0,0,0-.16-1.65,3.87,3.87,0,0,0-.47-1.29,2.59,2.59,0,0,0-.92-.91,4.06,4.06,0,0,0-1.55-.46,2.42,2.42,0,0,1,.77,1.12,4.64,4.64,0,0,1,.27,1.63,2.71,2.71,0,0,1-.13.86A6.26,6.26,0,0,0,30.14,47.43ZM28.21,44.6a.93.93,0,0,0-.76-.57.56.56,0,0,0-.39.15,1.16,1.16,0,0,0-.26.38,2.15,2.15,0,0,0-.15.51,3.15,3.15,0,0,0,0,.52q0,.22,0,.54a2.09,2.09,0,0,0,.14.61,1.14,1.14,0,0,0,.34.49.94.94,0,0,0,.64.2.63.63,0,0,0,.59-.37,2,2,0,0,0,.2-1A3,3,0,0,0,28.21,44.6Zm0,0a.93.93,0,0,0-.76-.57.56.56,0,0,0-.39.15,1.16,1.16,0,0,0-.26.38,2.15,2.15,0,0,0-.15.51,3.15,3.15,0,0,0,0,.52q0,.22,0,.54a2.09,2.09,0,0,0,.14.61,1.14,1.14,0,0,0,.34.49.94.94,0,0,0,.64.2.63.63,0,0,0,.59-.37,2,2,0,0,0,.2-1A3,3,0,0,0,28.21,44.6Zm1.93,2.83H32.5a13.19,13.19,0,0,0-.16-1.65,3.87,3.87,0,0,0-.47-1.29,2.59,2.59,0,0,0-.92-.91,4.06,4.06,0,0,0-1.55-.46,2.42,2.42,0,0,1,.77,1.12,4.64,4.64,0,0,1,.27,1.63,2.71,2.71,0,0,1-.13.86A6.26,6.26,0,0,0,30.14,47.43Zm0,0H32.5a13.19,13.19,0,0,0-.16-1.65,3.87,3.87,0,0,0-.47-1.29,2.59,2.59,0,0,0-.92-.91,4.06,4.06,0,0,0-1.55-.46,2.42,2.42,0,0,1,.77,1.12,4.64,4.64,0,0,1,.27,1.63,2.71,2.71,0,0,1-.13.86A6.26,6.26,0,0,0,30.14,47.43ZM28.21,44.6a.93.93,0,0,0-.76-.57.56.56,0,0,0-.39.15,1.16,1.16,0,0,0-.26.38,2.15,2.15,0,0,0-.15.51,3.15,3.15,0,0,0,0,.52q0,.22,0,.54a2.09,2.09,0,0,0,.14.61,1.14,1.14,0,0,0,.34.49.94.94,0,0,0,.64.2.63.63,0,0,0,.59-.37,2,2,0,0,0,.2-1A3,3,0,0,0,28.21,44.6Zm0,0a.93.93,0,0,0-.76-.57.56.56,0,0,0-.39.15,1.16,1.16,0,0,0-.26.38,2.15,2.15,0,0,0-.15.51,3.15,3.15,0,0,0,0,.52q0,.22,0,.54a2.09,2.09,0,0,0,.14.61,1.14,1.14,0,0,0,.34.49.94.94,0,0,0,.64.2.63.63,0,0,0,.59-.37,2,2,0,0,0,.2-1A3,3,0,0,0,28.21,44.6Zm1.93,2.83H32.5a13.19,13.19,0,0,0-.16-1.65,3.87,3.87,0,0,0-.47-1.29,2.59,2.59,0,0,0-.92-.91,4.06,4.06,0,0,0-1.55-.46,2.42,2.42,0,0,1,.77,1.12,4.64,4.64,0,0,1,.27,1.63,2.71,2.71,0,0,1-.13.86A6.26,6.26,0,0,0,30.14,47.43Zm0,0H32.5a13.19,13.19,0,0,0-.16-1.65,3.87,3.87,0,0,0-.47-1.29,2.59,2.59,0,0,0-.92-.91,4.06,4.06,0,0,0-1.55-.46,2.42,2.42,0,0,1,.77,1.12,4.64,4.64,0,0,1,.27,1.63,2.71,2.71,0,0,1-.13.86A6.26,6.26,0,0,0,30.14,47.43ZM28.21,44.6a.93.93,0,0,0-.76-.57.56.56,0,0,0-.39.15,1.16,1.16,0,0,0-.26.38,2.15,2.15,0,0,0-.15.51,3.15,3.15,0,0,0,0,.52q0,.22,0,.54a2.09,2.09,0,0,0,.14.61,1.14,1.14,0,0,0,.34.49.94.94,0,0,0,.64.2.63.63,0,0,0,.59-.37,2,2,0,0,0,.2-1A3,3,0,0,0,28.21,44.6Zm0,0a.93.93,0,0,0-.76-.57.56.56,0,0,0-.39.15,1.16,1.16,0,0,0-.26.38,2.15,2.15,0,0,0-.15.51,3.15,3.15,0,0,0,0,.52q0,.22,0,.54a2.09,2.09,0,0,0,.14.61,1.14,1.14,0,0,0,.34.49.94.94,0,0,0,.64.2.63.63,0,0,0,.59-.37,2,2,0,0,0,.2-1A3,3,0,0,0,28.21,44.6Zm1.93,2.83H32.5a13.19,13.19,0,0,0-.16-1.65,3.87,3.87,0,0,0-.47-1.29,2.59,2.59,0,0,0-.92-.91,4.06,4.06,0,0,0-1.55-.46,2.42,2.42,0,0,1,.77,1.12,4.64,4.64,0,0,1,.27,1.63,2.71,2.71,0,0,1-.13.86A6.26,6.26,0,0,0,30.14,47.43Zm0,0H32.5a13.19,13.19,0,0,0-.16-1.65,3.87,3.87,0,0,0-.47-1.29,2.59,2.59,0,0,0-.92-.91,4.06,4.06,0,0,0-1.55-.46,2.42,2.42,0,0,1,.77,1.12,4.64,4.64,0,0,1,.27,1.63,2.71,2.71,0,0,1-.13.86A6.26,6.26,0,0,0,30.14,47.43ZM27.45,44a.56.56,0,0,0-.39.15,1.16,1.16,0,0,0-.26.38,2.15,2.15,0,0,0-.15.51,3.15,3.15,0,0,0,0,.52q0,.22,0,.54a2.09,2.09,0,0,0,.14.61,1.14,1.14,0,0,0,.34.49.94.94,0,0,0,.64.2.63.63,0,0,0,.59-.37,2,2,0,0,0,.2-1,3,3,0,0,0-.33-1.49A.93.93,0,0,0,27.45,44ZM1.34,16.62V53.16a4.49,4.49,0,0,0,4.49,4.49H50.17a4.49,4.49,0,0,0,4.49-4.49V16.62ZM47.89,37.79a1.44,1.44,0,0,1,.41,1,1.31,1.31,0,0,1-.41,1,1.33,1.33,0,0,1-1,.41,1.44,1.44,0,0,1-1-.41,1.29,1.29,0,0,1-.42-1,1.43,1.43,0,0,1,1.45-1.45A1.3,1.3,0,0,1,47.89,37.79ZM44,34.22a1.39,1.39,0,0,1,1-.42,1.32,1.32,0,0,1,1,.42,1.42,1.42,0,0,1,.4,1,1.36,1.36,0,0,1-.4,1,1.32,1.32,0,0,1-1,.42,1.39,1.39,0,0,1-1-.42,1.31,1.31,0,0,1-.43-1A1.37,1.37,0,0,1,44,34.22Zm-1.79,3.57a1.39,1.39,0,0,1,1-.42,1.32,1.32,0,0,1,1,.42,1.44,1.44,0,0,1,.41,1,1.31,1.31,0,0,1-.41,1,1.35,1.35,0,0,1-1,.41,1.42,1.42,0,0,1-1-.41,1.29,1.29,0,0,1-.42-1A1.41,1.41,0,0,1,42.16,37.79ZM32.54,21.42c2.55,0,4,2.3,4,6.19,0,4.15-1.56,6.45-4.25,6.45-2.39,0-4-2.24-4.06-6.28S30.06,21.42,32.54,21.42ZM19.21,32a5.71,5.71,0,0,0,2.7.75c2.11,0,2.79-1.33,2.77-2.37,0-1.71-1.56-2.44-3.16-2.44H20.6V26.67h.92c1.2,0,2.73-.62,2.73-2.07,0-1-.62-1.84-2.15-1.84a4.45,4.45,0,0,0-2.44.81l-.45-1.21a5.93,5.93,0,0,1,3.21-.94c2.41,0,3.5,1.43,3.5,2.92a3,3,0,0,1-2.26,2.89v0a3.16,3.16,0,0,1,2.73,3.12c0,2-1.54,3.67-4.46,3.67a6.13,6.13,0,0,1-3.17-.83ZM8.77,56.2a1.34,1.34,0,0,1-1,.4,1.45,1.45,0,0,1-1-.4,1.32,1.32,0,0,1-.42-1,1.39,1.39,0,0,1,.42-1,1.43,1.43,0,0,1,1-.42,1.32,1.32,0,0,1,1,.42,1.41,1.41,0,0,1,.4,1A1.34,1.34,0,0,1,8.77,56.2Zm3.72,0a1.34,1.34,0,0,1-1,.4,1.41,1.41,0,0,1-1-.4,1.33,1.33,0,0,1-.43-1,1.45,1.45,0,0,1,1.45-1.44,1.32,1.32,0,0,1,1,.42,1.41,1.41,0,0,1,.4,1A1.34,1.34,0,0,1,12.49,56.2Zm3.18-13.57a3.16,3.16,0,0,1-.29.68.34.34,0,0,1-.26.18.43.43,0,0,1-.33-.07,1.2,1.2,0,0,0-.9-.13,2.9,2.9,0,0,0-1,.44,3.3,3.3,0,0,0-.82.76,1.87,1.87,0,0,0-.39.81,1.27,1.27,0,0,0,.06.45c.05.17.18.26.41.29h2a1.78,1.78,0,0,1,.53.08.91.91,0,0,1,.42.31,1.68,1.68,0,0,1,.29.6,4.16,4.16,0,0,1,.1.94,4.4,4.4,0,0,1-1.53,3.72,8.09,8.09,0,0,1-4.88,1.17,6.79,6.79,0,0,1-2.24-.35,5.69,5.69,0,0,1-1.69-.93A4.25,4.25,0,0,1,4.06,50.3a3,3,0,0,1-.38-1.4,7.38,7.38,0,0,1,.2-1.82,6.84,6.84,0,0,1,.47-1.31,5.84,5.84,0,0,1,.57-.94,8.49,8.49,0,0,0,.51-.77H6.88A9.25,9.25,0,0,0,6,45.93a6.22,6.22,0,0,0-.36,2,2.49,2.49,0,0,0,.22,1,2.58,2.58,0,0,0,.64.88,3.49,3.49,0,0,0,1,.62,4.07,4.07,0,0,0,1.4.23,14.67,14.67,0,0,0,2.28-.13,3,3,0,0,0,1.17-.39,1.24,1.24,0,0,0,.51-.69c.08-.28.17-.62.27-1a.41.41,0,0,0,0-.27c0-.07-.13-.1-.28-.1H11.82c-.35,0-.66,0-.92,0a1.78,1.78,0,0,1-.66-.16A1.45,1.45,0,0,1,9.43,47a2.73,2.73,0,0,1,0-1.36,5.09,5.09,0,0,1,.7-1.51,7.66,7.66,0,0,1,1.21-1.41,6.42,6.42,0,0,1,1.55-1.05,3.92,3.92,0,0,1,1.75-.42,1.16,1.16,0,0,1,.77.21.83.83,0,0,1,.29.52A1.51,1.51,0,0,1,15.67,42.63ZM51,49.48H21.71a7.1,7.1,0,0,1-.1.77,4.29,4.29,0,0,1-.3.92,5.32,5.32,0,0,1-.58.94,3.5,3.5,0,0,1-.93.85,4.81,4.81,0,0,1-1.39.6,7.35,7.35,0,0,1-1.94.22L16,52.43A4.59,4.59,0,0,0,17.74,52a3.58,3.58,0,0,0,.63-.41,2.68,2.68,0,0,0,.56-.6,3,3,0,0,0,.39-.82,3.7,3.7,0,0,0,.15-1.1c0-1.14,0-2.31-.08-3.51A16.94,16.94,0,0,0,18.84,42l2.25-.74c.2,1.09.35,2.16.44,3.22s.16,2,.18,3h3.57a1,1,0,0,1-.43-.74,8.91,8.91,0,0,1-.05-1.08,3.18,3.18,0,0,1,.14-.93,3.79,3.79,0,0,1,.4-.93A3.3,3.3,0,0,1,26,43a1.63,1.63,0,0,1,.82-.38,2.63,2.63,0,0,1-.95-.15,1.57,1.57,0,0,1-.64-.41,1.81,1.81,0,0,1-.39-.66,5.62,5.62,0,0,1-.2-.87,26.62,26.62,0,0,0,4.79.73,11.07,11.07,0,0,1,2.57.6A4.5,4.5,0,0,1,33.66,43a4.32,4.32,0,0,1,.94,1.79,9.55,9.55,0,0,1,.29,2.56v.08h4.36V42l2.26-.79v6.24H44V42l2.26-.79v6.24h2.46V42L51,41.19Zm-19.1-5a2.59,2.59,0,0,0-.92-.91,4.06,4.06,0,0,0-1.55-.46,2.42,2.42,0,0,1,.77,1.12,4.64,4.64,0,0,1,.27,1.63,2.71,2.71,0,0,1-.13.86,6.26,6.26,0,0,0-.17.7H32.5a13.19,13.19,0,0,0-.16-1.65A3.87,3.87,0,0,0,31.87,44.49ZM27.45,44a.56.56,0,0,0-.39.15,1.16,1.16,0,0,0-.26.38,2.15,2.15,0,0,0-.15.51,3.15,3.15,0,0,0,0,.52q0,.22,0,.54a2.09,2.09,0,0,0,.14.61,1.14,1.14,0,0,0,.34.49.94.94,0,0,0,.64.2.63.63,0,0,0,.59-.37,2,2,0,0,0,.2-1,3,3,0,0,0-.33-1.49A.93.93,0,0,0,27.45,44Zm.76.57a.93.93,0,0,0-.76-.57.56.56,0,0,0-.39.15,1.16,1.16,0,0,0-.26.38,2.15,2.15,0,0,0-.15.51,3.15,3.15,0,0,0,0,.52q0,.22,0,.54a2.09,2.09,0,0,0,.14.61,1.14,1.14,0,0,0,.34.49.94.94,0,0,0,.64.2.63.63,0,0,0,.59-.37,2,2,0,0,0,.2-1A3,3,0,0,0,28.21,44.6Zm1.93,2.83H32.5a13.19,13.19,0,0,0-.16-1.65,3.87,3.87,0,0,0-.47-1.29,2.59,2.59,0,0,0-.92-.91,4.06,4.06,0,0,0-1.55-.46,2.42,2.42,0,0,1,.77,1.12,4.64,4.64,0,0,1,.27,1.63,2.71,2.71,0,0,1-.13.86A6.26,6.26,0,0,0,30.14,47.43Zm0,0H32.5a13.19,13.19,0,0,0-.16-1.65,3.87,3.87,0,0,0-.47-1.29,2.59,2.59,0,0,0-.92-.91,4.06,4.06,0,0,0-1.55-.46,2.42,2.42,0,0,1,.77,1.12,4.64,4.64,0,0,1,.27,1.63,2.71,2.71,0,0,1-.13.86A6.26,6.26,0,0,0,30.14,47.43ZM28.21,44.6a.93.93,0,0,0-.76-.57.56.56,0,0,0-.39.15,1.16,1.16,0,0,0-.26.38,2.15,2.15,0,0,0-.15.51,3.15,3.15,0,0,0,0,.52q0,.22,0,.54a2.09,2.09,0,0,0,.14.61,1.14,1.14,0,0,0,.34.49.94.94,0,0,0,.64.2.63.63,0,0,0,.59-.37,2,2,0,0,0,.2-1A3,3,0,0,0,28.21,44.6Zm0,0a.93.93,0,0,0-.76-.57.56.56,0,0,0-.39.15,1.16,1.16,0,0,0-.26.38,2.15,2.15,0,0,0-.15.51,3.15,3.15,0,0,0,0,.52q0,.22,0,.54a2.09,2.09,0,0,0,.14.61,1.14,1.14,0,0,0,.34.49.94.94,0,0,0,.64.2.63.63,0,0,0,.59-.37,2,2,0,0,0,.2-1A3,3,0,0,0,28.21,44.6Zm1.93,2.83H32.5a13.19,13.19,0,0,0-.16-1.65,3.87,3.87,0,0,0-.47-1.29,2.59,2.59,0,0,0-.92-.91,4.06,4.06,0,0,0-1.55-.46,2.42,2.42,0,0,1,.77,1.12,4.64,4.64,0,0,1,.27,1.63,2.71,2.71,0,0,1-.13.86A6.26,6.26,0,0,0,30.14,47.43Zm0,0H32.5a13.19,13.19,0,0,0-.16-1.65,3.87,3.87,0,0,0-.47-1.29,2.59,2.59,0,0,0-.92-.91,4.06,4.06,0,0,0-1.55-.46,2.42,2.42,0,0,1,.77,1.12,4.64,4.64,0,0,1,.27,1.63,2.71,2.71,0,0,1-.13.86A6.26,6.26,0,0,0,30.14,47.43ZM28.21,44.6a.93.93,0,0,0-.76-.57.56.56,0,0,0-.39.15,1.16,1.16,0,0,0-.26.38,2.15,2.15,0,0,0-.15.51,3.15,3.15,0,0,0,0,.52q0,.22,0,.54a2.09,2.09,0,0,0,.14.61,1.14,1.14,0,0,0,.34.49.94.94,0,0,0,.64.2.63.63,0,0,0,.59-.37,2,2,0,0,0,.2-1A3,3,0,0,0,28.21,44.6Zm0,0a.93.93,0,0,0-.76-.57.56.56,0,0,0-.39.15,1.16,1.16,0,0,0-.26.38,2.15,2.15,0,0,0-.15.51,3.15,3.15,0,0,0,0,.52q0,.22,0,.54a2.09,2.09,0,0,0,.14.61,1.14,1.14,0,0,0,.34.49.94.94,0,0,0,.64.2.63.63,0,0,0,.59-.37,2,2,0,0,0,.2-1A3,3,0,0,0,28.21,44.6Zm1.93,2.83H32.5a13.19,13.19,0,0,0-.16-1.65,3.87,3.87,0,0,0-.47-1.29,2.59,2.59,0,0,0-.92-.91,4.06,4.06,0,0,0-1.55-.46,2.42,2.42,0,0,1,.77,1.12,4.64,4.64,0,0,1,.27,1.63,2.71,2.71,0,0,1-.13.86A6.26,6.26,0,0,0,30.14,47.43Zm0,0H32.5a13.19,13.19,0,0,0-.16-1.65,3.87,3.87,0,0,0-.47-1.29,2.59,2.59,0,0,0-.92-.91,4.06,4.06,0,0,0-1.55-.46,2.42,2.42,0,0,1,.77,1.12,4.64,4.64,0,0,1,.27,1.63,2.71,2.71,0,0,1-.13.86A6.26,6.26,0,0,0,30.14,47.43ZM28.21,44.6a.93.93,0,0,0-.76-.57.56.56,0,0,0-.39.15,1.16,1.16,0,0,0-.26.38,2.15,2.15,0,0,0-.15.51,3.15,3.15,0,0,0,0,.52q0,.22,0,.54a2.09,2.09,0,0,0,.14.61,1.14,1.14,0,0,0,.34.49.94.94,0,0,0,.64.2.63.63,0,0,0,.59-.37,2,2,0,0,0,.2-1A3,3,0,0,0,28.21,44.6Zm0,0a.93.93,0,0,0-.76-.57.56.56,0,0,0-.39.15,1.16,1.16,0,0,0-.26.38,2.15,2.15,0,0,0-.15.51,3.15,3.15,0,0,0,0,.52q0,.22,0,.54a2.09,2.09,0,0,0,.14.61,1.14,1.14,0,0,0,.34.49.94.94,0,0,0,.64.2.63.63,0,0,0,.59-.37,2,2,0,0,0,.2-1A3,3,0,0,0,28.21,44.6Zm1.93,2.83H32.5a13.19,13.19,0,0,0-.16-1.65,3.87,3.87,0,0,0-.47-1.29,2.59,2.59,0,0,0-.92-.91,4.06,4.06,0,0,0-1.55-.46,2.42,2.42,0,0,1,.77,1.12,4.64,4.64,0,0,1,.27,1.63,2.71,2.71,0,0,1-.13.86A6.26,6.26,0,0,0,30.14,47.43Zm0,0H32.5a13.19,13.19,0,0,0-.16-1.65,3.87,3.87,0,0,0-.47-1.29,2.59,2.59,0,0,0-.92-.91,4.06,4.06,0,0,0-1.55-.46,2.42,2.42,0,0,1,.77,1.12,4.64,4.64,0,0,1,.27,1.63,2.71,2.71,0,0,1-.13.86A6.26,6.26,0,0,0,30.14,47.43ZM28.21,44.6a.93.93,0,0,0-.76-.57.56.56,0,0,0-.39.15,1.16,1.16,0,0,0-.26.38,2.15,2.15,0,0,0-.15.51,3.15,3.15,0,0,0,0,.52q0,.22,0,.54a2.09,2.09,0,0,0,.14.61,1.14,1.14,0,0,0,.34.49.94.94,0,0,0,.64.2.63.63,0,0,0,.59-.37,2,2,0,0,0,.2-1A3,3,0,0,0,28.21,44.6Z" transform="translate(-1.34 -0.35)"/><path class="cls-1" d="M54.66,7.07A4.46,4.46,0,0,0,50.2,2.61H47.41V.76A.41.41,0,0,0,47,.35h0a.41.41,0,0,0-.41.41V2.61h-.87V.76A.41.41,0,0,0,45.3.35a.41.41,0,0,0-.42.41V2.61H38.34V.76a.42.42,0,0,0-.84,0V2.61h-.86V.76a.41.41,0,0,0-.42-.41h0a.41.41,0,0,0-.41.41V2.61H29.27V.76a.42.42,0,0,0-.84,0V2.61h-.86V.76a.42.42,0,0,0-.84,0V2.61H20.19V.76a.41.41,0,0,0-.41-.41.41.41,0,0,0-.42.41V2.61H18.5V.76a.41.41,0,0,0-.42-.41h0a.41.41,0,0,0-.42.41V2.61H11.12V.76a.42.42,0,0,0-.83,0V2.61H9.42V.76A.41.41,0,0,0,9,.35a.41.41,0,0,0-.42.41V2.61H5.8A4.46,4.46,0,0,0,1.34,7.07V14.9H54.66ZM9.86,9.55A2.08,2.08,0,0,1,8.59,5.81V7.45A.42.42,0,0,0,9,7.87a.41.41,0,0,0,.41-.42v-2a1.92,1.92,0,0,1,.87,0v2a.42.42,0,1,0,.83,0V5.81A2.08,2.08,0,0,1,9.86,9.55Zm9.07,0a2.08,2.08,0,0,1-1.27-3.74V7.45a.42.42,0,0,0,.42.42h0a.42.42,0,0,0,.42-.42v-2a1.87,1.87,0,0,1,.86,0v2a.42.42,0,0,0,.42.42.41.41,0,0,0,.41-.42V5.81a2.08,2.08,0,0,1-1.26,3.74Zm9.07,0a2.09,2.09,0,0,1-1.27-3.74V7.45a.42.42,0,1,0,.84,0v-2a1.87,1.87,0,0,1,.86,0v2a.42.42,0,0,0,.84,0V5.81A2.09,2.09,0,0,1,28,9.55Zm9.07,0a2.08,2.08,0,0,1-1.26-3.74V7.45a.41.41,0,0,0,.41.42h0a.42.42,0,0,0,.42-.42v-2a2,2,0,0,1,.43,0,2,2,0,0,1,.43,0v2a.42.42,0,0,0,.84,0V5.81a2.08,2.08,0,0,1-1.27,3.74Zm9.07,0a2.08,2.08,0,0,1-1.26-3.74V7.45a.42.42,0,0,0,.42.42.41.41,0,0,0,.41-.42v-2a1.92,1.92,0,0,1,.87,0v2a.41.41,0,0,0,.41.42h0a.42.42,0,0,0,.42-.42V5.81a2.08,2.08,0,0,1-1.27,3.74Z" transform="translate(-1.34 -0.35)"/></svg>